<svg viewBox="0 0 40 40" xmlns="http://www.w3.org/2000/svg" xmlns:xlink="http://www.w3.org/1999/xlink" width="40.000000" height="40.000000" fill="none">
	<rect id="100x100" width="40.000000" height="40.000000" x="0.000000" y="0.000000" fill="rgb(255,255,255)" fill-opacity="0" />
	<g id="Layer 1">
		<path id="Vector" d="M9.72541 28.0243L18.3848 33.0851C18.8765 33.3725 19.4343 33.5238 20.0021 33.5238C20.5698 33.5238 21.1276 33.3725 21.6193 33.0851L30.2787 28.0243C30.5419 27.8705 30.7602 27.649 30.9116 27.3822C31.063 27.1154 31.142 26.8128 31.1406 26.5051L31.1406 23.3434C31.1426 23.3091 31.135 23.2749 31.1188 23.2446C31.1027 23.2143 31.0784 23.1893 31.0489 23.1722C31.0194 23.1551 30.9858 23.1467 30.9518 23.148C30.9178 23.1492 30.8849 23.16 30.8567 23.1792L21.6193 28.5787C21.1276 28.8661 20.5698 29.0174 20.0021 29.0174C19.4343 29.0174 18.8765 28.8661 18.3848 28.5787L13.0107 25.4375C12.9216 25.3855 12.8476 25.3107 12.796 25.2206C12.7444 25.1306 12.717 25.0284 12.7166 24.9243L12.7166 20.9209C12.7156 20.9037 12.7194 20.8866 12.7275 20.8715C12.7356 20.8563 12.7477 20.8438 12.7625 20.8352C12.7772 20.8267 12.794 20.8225 12.811 20.8231C12.828 20.8238 12.8445 20.8292 12.8586 20.8387L18.3848 24.062C18.8765 24.3494 19.4343 24.5007 20.0021 24.5007C20.5698 24.5007 21.1276 24.3494 21.6193 24.062L34.7098 16.4145C34.7388 16.3963 34.7722 16.3862 34.8063 16.3853C34.8405 16.3845 34.8743 16.3928 34.9042 16.4095C34.9342 16.4263 34.9592 16.4507 34.9767 16.4805C34.9942 16.5102 35.0035 16.5441 35.0038 16.5787L35.0038 27.7472C35.0117 28.3703 34.8552 28.9842 34.5504 29.5256C34.2456 30.0669 33.8035 30.5161 33.2699 30.8267L21.741 37.5299C21.212 37.8379 20.6124 38 20.0021 38C19.3918 38 18.7921 37.8379 18.2631 37.5299L6.73418 30.7857C6.20057 30.4751 5.75853 30.0259 5.45372 29.4845C5.14891 28.9431 4.99238 28.3292 5.00029 27.7061L5.00029 13.2631C4.99553 12.6406 5.1534 12.0279 5.4579 11.4871C5.76239 10.9463 6.2027 10.4966 6.73418 10.1835L18.2631 3.47013C18.7921 3.16211 19.3918 3 20.0021 3C20.6124 3 21.212 3.16211 21.741 3.47013L34.2839 10.7994C34.3994 10.8697 34.4949 10.969 34.5613 11.0877C34.6276 11.2065 34.6625 11.3405 34.6625 11.4769C34.6625 11.6133 34.6276 11.7474 34.5613 11.8661C34.4949 11.9849 34.3994 12.0842 34.2839 12.1544L21.6193 19.5556C21.1276 19.843 20.5698 19.9943 20.0021 19.9943C19.4343 19.9943 18.8765 19.843 18.3848 19.5556L9.4415 14.2896C9.38286 14.2553 9.31633 14.2373 9.24861 14.2373C9.1809 14.2374 9.11439 14.2555 9.05579 14.2898C8.99718 14.3242 8.94856 14.3735 8.91481 14.433C8.88106 14.4924 8.86337 14.5598 8.86353 14.6283L8.86353 26.5051C8.86215 26.8128 8.94114 27.1154 9.0925 27.3822C9.24386 27.649 9.46221 27.8705 9.72541 28.0243Z" fill="rgb(26,168,255)" fill-rule="nonzero" />
	</g>
</svg>
